# AST/ASF file generated using VICON BodyLanguage
# -----------------------------------------------
:version 1.10
:name VICON
:units
  mass 1.0
  length 0.45
  angle deg
:documentation
   .ast/.asf automatically generated from VICON data using
   VICON BodyBuilder and BodyLanguage model FoxedUp or BRILLIANT.MOD
:root
   order TX TY TZ RX RY RZ
   axis XYZ
   position 0 0 0  
   orientation 0 0 0 
:bonedata
  begin
     id 1 
     name lhipjoint
     direction 0.707368 -0.647095 0.284426 
     length 2.60678 
     axis 0 0 0  XYZ
  end
  begin
     id 2 
     name lfemur
     direction 0.34202 -0.939693 0  
     length 6.63812  
     axis 0 0 20  XYZ
    dof rx ry rz
    limits (-160.0 20.0)
           (-70.0 70.0)
           (-60.0 70.0)
  end
  begin
     id 3 
     name ltibia
     direction 0.34202 -0.939693 0   
     length 7.51178   
     axis 0 0 20   XYZ
    dof rx
    limits (-10.0 170.0)
  end
  begin
     id 4 
     name lfoot
     direction 0.121251 -0.333133 0.935051   
     length 1.83716   
     axis -90 7.62852e-016 20   XYZ
    dof rx rz
    limits (-45.0 90.0)
           (-70.0 20.0)
  end
  begin
     id 5 
     name ltoes
     direction 1.53611e-011 -4.21962e-011 1   
     length 0.916133   
     axis -90 7.62852e-016 20   XYZ
    dof rx
    limits (-90.0 20.0)
  end
  begin
     id 6 
     name rhipjoint
     direction -0.692419 -0.660507 0.290321   
     length 2.55385  
     axis 0 0 0  XYZ 
  end
  begin
     id 7 
     name rfemur
     direction -0.34202 -0.939693 0   
     length 7.29079   
     axis 0 0 -20   XYZ
    dof rx ry rz
    limits (-160.0 20.0)
           (-70.0 70.0)
           (-70.0 60.0)
  end
  begin
     id 8 
     name rtibia
     direction -0.34202 -0.939693 0   
     length 7.47143   
     axis 0 0 -20   XYZ
    dof rx
    limits (-10.0 170.0)
 end
 begin
     id 9 
     name rfoot
     direction -0.119907 -0.329441 0.936532   
     length 1.79439  
     axis -90 -7.62852e-016 -20   XYZ
    dof rx rz
    limits (-45.0 90.0)
           (-20.0 70.0)
  end
  begin
     id 10 
     name rtoes
     direction -1.53571e-011 -4.21961e-011 1   
     length 0.896039   
     axis -90 -7.62852e-016 -20   XYZ
    dof rx
    limits (-90.0 20.0)
  end
  begin
     id 11 
     name lowerback
     direction 0.0367721 0.992912 -0.113016   
     length 1.73542   
     axis 0 0 0   XYZ
    dof rx ry rz
    limits (-20.0 45.0)
           (-30.0 30.0)
           (-30.0 30.0)
  end
  begin
     id 12 
     name upperback
     direction -0.000314626 0.990678 0.136227   
     length 1.7514   
     axis 0 0 0   XYZ
    dof rx ry rz
    limits (-20.0 45.0)
           (-30.0 30.0)
           (-30.0 30.0)
  end
  begin
     id 13 
     name thorax
     direction -0.0226159 0.981151 0.191917   
     length 1.71471   
     axis 0 0 0   XYZ
    dof rx ry rz
    limits (-20.0 45.0)
           (-30.0 30.0)
           (-30.0 30.0)
  end
  begin
     id 14 
     name lowerneck
     direction 0.0219333 0.998071 0.0580739   
     length 1.65882   
     axis 0 0 0   XYZ
    dof rx ry rz
    limits (-20.0 45.0)
           (-30.0 30.0)
           (-30.0 30.0)
  end
  begin
     id 15 
     name upperneck
     direction 0.0384529 0.980058 -0.194957   
     length 1.6612   
     axis 0 0 0   XYZ
    dof rx ry rz
    limits (-20.0 45.0)
           (-30.0 30.0)
           (-30.0 30.0)
  end
  begin
     id 16
     name head
     direction 0.00592123 0.997421 -0.0715234  
     length 1.68077  
     axis 0 0 0   XYZ
    dof rx ry rz
    limits (-20.0 45.0)
           (-30.0 30.0)
           (-30.0 30.0)
  end
  begin
     id 17 
     name lclavicle
     direction 0.904803 0.417826 0.0821728  
     length 3.42227  
     axis 0 0 0   XYZ
    dof ry rz
    limits (-20.0 10.0)
           (0.0 20.0)
  end
  begin
     id 18 
     name lhumerus
     direction 1 -4.48965e-011 -2.68786e-027   
     length 5.11878   
     axis -180 -30 -90   XYZ
    dof rx ry rz
    limits (-60.0 90.0)
           (-90.0 90.0)
           (-90.0 90.0)
  end
  begin
     id 19
     name lradius
     direction 1 -4.48965e-011 2.61168e-028   
     length 3.59971   
     axis -180 -30 -90   XYZ
    dof rx
    limits (-10.0 170.0)
  end
  begin
     id 20
     name lwrist
     direction 1 -4.48965e-011 1.58672e-027   
     length 1.79985   
     axis -1.65735e-015 90 90   XYZ
    dof ry
    limits (-180.0 0.0)
 end
  begin
     id 21 
     name lhand
     direction 1 -4.48942e-011 3.17344e-027   
     length 0.62877   
     axis -2.02492e-015 90 90   XYZ
    dof rx rz
    limits (-90.0 90.0)
           (-45.0 45.0)
  end
  begin
     id 22 
     name lfingers
     direction 1 -4.49011e-011 6.34687e-027   
     length 0.506931   
     axis -4.04985e-015 90 90   XYZ
    dof rx
    limits (0.0 90.0)
  end
  begin
     id 23
     name lthumb
     direction 0.707107 -6.34982e-011 0.707107   
     length 0.727854   
     axis -90 45 2.85299e-015   XYZ
    dof rx rz
    limits (-45.0 45.0)
           (-45.0 45.0)
  end
  begin
     id 24 
     name rclavicle
     direction -0.945647 0.32488 0.0143075   
     length 3.52737  
     axis 0 0 0   XYZ 
    dof ry rz
    limits (-10.0 20.0)
           (-20.0 0.0)
  end
  begin
     id 25 
     name rhumerus
     direction -1 -4.48962e-011 1.92182e-027  
     length 5.4902   
     axis -180 30 90   XYZ
    dof rx ry rz
    limits (-90.0 60.0)
           (-90.0 90.0)
           (-90.0 90.0)
  end
  begin
     id 26 
     name rradius
     direction -1 -4.48967e-011 -5.97193e-028   
     length 3.20659   
     axis -180 30 90   XYZ
    dof rx
    limits (-10.0 170.0)
  end
  begin
     id 27 
     name rwrist
     direction -1 -4.48964e-011 1.58672e-027   
     length 1.6033   
     axis -1.65735e-015 -90 -90   XYZ
    dof ry
    limits (-180.0 0.0)
  end
  begin
     id 28
     name rhand
     direction -1 -4.49006e-011 3.17344e-027   
     length 0.691885   
     axis -2.02492e-015 -90 -90   XYZ
    dof rx rz
    limits (-90.0 90.0)
           (-45.0 45.0)
  end
  begin
     id 29
     name rfingers
     direction -1 -4.48908e-011 6.34687e-027   
     length 0.557815   
     axis -4.04985e-015 -90 -90   XYZ
    dof rx
    limits (0.0 90.0)
  end
  begin
     id 30
     name rthumb
     direction -0.707107 -6.34999e-011 0.707107   
     length 0.800915   
     axis -90 -45 -2.85299e-015   XYZ
    dof rx rz
    limits (-45.0 45.0)
           (-45.0 45.0)
  end
:hierarchy
  begin
    root lhipjoint rhipjoint lowerback
    lhipjoint lfemur
    lfemur ltibia
    ltibia lfoot
    lfoot ltoes
    rhipjoint rfemur
    rfemur rtibia
    rtibia rfoot
    rfoot rtoes
    lowerback upperback
    upperback thorax
    thorax lowerneck lclavicle rclavicle
    lowerneck upperneck
    upperneck head
    lclavicle lhumerus
    lhumerus lradius
    lradius lwrist
    lwrist lhand lthumb
    lhand lfingers
    rclavicle rhumerus
    rhumerus rradius
    rradius rwrist
    rwrist rhand rthumb
    rhand rfingers
  end

#!OML:ASF I:\Actors\actors\Patient Classification 1\Patient 1\Session 1\Subject1.ASF
:FULLY-SPECIFIED
:DEGREES
95
root -0.424449 17.5092 8.10673 7.88977 -3.26553 -5.40116
lowerback 0.991605 0.274763 1.84579
upperback -9.68201 0.538608 0.579241
thorax -10.8473 0.12654 -0.465002
lowerneck -0.915155 -13.0611 -12.9061
upperneck 19.4412 -19.7263 11.9865
head 8.69337 -9.5749 4.17707
rclavicle -2.08724e-015 2.38542e-015
rhumerus -45.1468 -14.7092 -75.1181
rradius 26.2042
rwrist 37.4548
rhand 6.5899 -34.2977
rfingers 7.12502
rthumb 31.8852 -61.5266
lclavicle -2.08724e-015 2.38542e-015
lhumerus -41.796 8.89636 83.1215
lradius 21.8953
lwrist -26.3075
lhand -12.0003 -6.76739
lfingers 7.12502
lthumb 14.0567 22.7372
rfemur -1.89768 26.1807 22.2699
rtibia 1.05659
rfoot -10.1065 -22.8686
rtoes 0.31158
lfemur 7.85871 -42.604 -18.8703
ltibia -4.36182
lfoot -22.2872 52.7204
ltoes 14.409
96
root -0.426692 17.5078 8.10631 7.9201 -3.20851 -5.49221
lowerback 0.971501 0.261061 1.89189
upperback -9.66375 0.526121 0.619755
thorax -10.8148 0.119013 -0.445981
lowerneck -0.866936 -13.0452 -12.9363
upperneck 19.3494 -19.7212 12.1101
head 8.66924 -9.5696 4.22709
rclavicle -1.39149e-015 7.95139e-015
rhumerus -45.155 -14.622 -75.2439
rradius 26.319
rwrist 37.2458
rhand 6.50498 -34.3614
rfingers 7.12502
rthumb 31.8044 -61.6064
lclavicle -1.39149e-015 7.95139e-015
lhumerus -41.7927 8.77302 83.281
lradius 21.9566
lwrist -26.1757
lhand -12.0088 -6.66464
lfingers 7.12502
lthumb 14.0485 22.8406
rfemur -1.93236 26.2016 22.3801
rtibia 1.0757
rfoot -10.1302 -22.9133
rtoes 0.492125
lfemur 7.75294 -42.4953 -18.6552
ltibia -4.37121
lfoot -21.8736 52.6465
ltoes 13.9121
97
root -0.428977 17.5069 8.10594 7.94044 -3.17221 -5.5633
lowerback 0.973117 0.275838 1.94013
upperback -9.66127 0.549789 0.622105
thorax -10.8123 0.12652 -0.472835
lowerneck -0.691529 -13.0354 -12.9389
upperneck 19.2257 -19.7356 12.2337
head 8.61136 -9.57878 4.28036
rclavicle 7.15625e-015 -1.98785e-015
rhumerus -45.238 -14.7829 -75.2465
rradius 26.3598
rwrist 37.3466
rhand 6.46373 -34.2151
rfingers 7.12502
rthumb 31.7651 -61.4679
lclavicle 7.15625e-015 -1.98785e-015
lhumerus -41.8416 8.48879 83.49
lradius 22.1307
lwrist -26.3017
lhand -11.7984 -6.17187
lfingers 7.12502
lthumb 14.2512 23.3192
rfemur -1.95494 26.2276 22.4689
rtibia 1.08729
rfoot -10.1401 -22.9543
rtoes 0.799453
lfemur 7.67408 -42.4185 -18.4914
ltibia -4.36823
lfoot -21.9015 52.5447
ltoes 13.9871
98
root -0.430104 17.506 8.10673 7.95991 -3.16152 -5.54454
lowerback 0.950418 0.284874 1.90095
upperback -9.65771 0.557748 0.610682
thorax -10.7943 0.133476 -0.463914
lowerneck -0.549651 -13.0299 -12.94
upperneck 19.1159 -19.7468 12.3236
head 8.56009 -9.58692 4.3201
rclavicle 7.25564e-015 4.37326e-015
rhumerus -45.2958 -14.932 -75.2704
rradius 26.3599
rwrist 37.5014
rhand 6.47838 -34.0378
rfingers 7.12502
rthumb 31.779 -61.2879
lclavicle 7.25564e-015 4.37326e-015
lhumerus -41.9169 8.28409 83.6695
lradius 22.3022
lwrist -26.4813
lhand -11.6793 -5.59118
lfingers 7.12502
lthumb 14.3661 23.8917
rfemur -1.97812 26.1803 22.4309
rtibia 1.07588
rfoot -10.1124 -22.9211
rtoes 0.725342
lfemur 7.62921 -42.4133 -18.4796
ltibia -4.35521
lfoot -22.0755 52.4897
ltoes 14.2193
99
root -0.430952 17.505 8.10787 7.99382 -3.1583 -5.49966
lowerback 0.90205 0.27748 1.82391
upperback -9.65457 0.541386 0.612828
thorax -10.7619 0.132738 -0.41671
lowerneck -0.44878 -13.026 -12.929
upperneck 19.0216 -19.7463 12.3578
head 8.51253 -9.59038 4.33835
rclavicle -1.09332e-015 -9.54166e-015
rhumerus -45.3231 -14.8671 -75.4319
rradius 26.4217
rwrist 37.3765
rhand 6.55077 -34.1199
rfingers 7.12502
rthumb 31.848 -61.3562
lclavicle -1.09332e-015 -9.54166e-015
lhumerus -41.9688 8.2979 83.7072
lradius 22.1985
lwrist -26.1104
lhand -12.0951 -6.02135
lfingers 7.12502
lthumb 13.9653 23.4896
rfemur -2.01773 26.1701 22.3548
rtibia 1.07765
rfoot -10.1273 -22.9076
rtoes 0.82386
lfemur 7.56997 -42.4269 -18.4977
ltibia -4.33233
lfoot -22.0561 52.492
ltoes 14.1081
100
root -0.431754 17.5047 8.10871 8.03 -3.14475 -5.4484
lowerback 0.859462 0.267583 1.75034
upperback -9.6517 0.521383 0.606528
thorax -10.7334 0.129394 -0.38017
lowerneck -0.444494 -13.0351 -12.9719
upperneck 19.0635 -19.7742 12.4057
head 8.5398 -9.60238 4.35588
rclavicle -8.54774e-015 1.03368e-014
rhumerus -45.3671 -14.783 -75.6115
rradius 26.5175
rwrist 37.1827
rhand 6.56318 -34.2239
rfingers 7.12502
rthumb 31.8598 -61.4579
lclavicle -8.54774e-015 1.03368e-014
lhumerus -42.0075 8.36616 83.6806
lradius 22.0641
lwrist -25.7824
lhand -12.4064 -6.76146
lfingers 7.12502
lthumb 13.6654 22.7699
rfemur -2.05641 26.1794 22.279
rtibia 1.0742
rfoot -10.1362 -22.9314
rtoes 0.902806
lfemur 7.49729 -42.4164 -18.5105
ltibia -4.31235
lfoot -22.0899 52.4769
ltoes 14.1742
101
root -0.431913 17.5051 8.10965 8.05297 -3.1266 -5.3695
lowerback 0.829801 0.263854 1.66583
upperback -9.64611 0.50806 0.584877
thorax -10.7093 0.129411 -0.354706
lowerneck -0.545946 -13.0724 -13.0631
upperneck 19.2553 -19.8565 12.4783
head 8.65295 -9.63319 4.37101
rclavicle 7.95139e-016 8.74653e-015
rhumerus -45.4215 -14.6845 -75.8013
rradius 26.5971
rwrist 36.9508
rhand 6.56458 -34.2723
rfingers 7.12502
rthumb 31.8611 -61.506
lclavicle 7.95139e-016 8.74653e-015
lhumerus -42.0614 8.43817 83.6348
lradius 22.0515
lwrist -25.9139
lhand -12.3823 -7.00164
lfingers 7.12502
lthumb 13.6886 22.5282
rfemur -2.07852 26.1551 22.1758
rtibia 1.05481
rfoot -10.1242 -22.9493
rtoes 1.01608
lfemur 7.45106 -42.4199 -18.5759
ltibia -4.29948
lfoot -22.0387 52.4689
ltoes 14.1496
